# xmcd
#
# Track frame offsets:
#	183
#	10123
#	20445
#	31703
#	43168
#	56010
#	68258
#	80093
#	91643
#	102645
#	112260
#	124505
#	137755
#	146880
#	157285
#	167338
#
# Disc length: 2352 seconds
#
# Revision: 1
# Processed by: cddbd v1.5.1PL2 Copyright (c) Steve Scherf et al.
# Submitted via: audiograbber 1.83.01
#
DISCID=d3092e10
DTITLE=Various Artist - Hillbilly Rock 1
DYEAR=1900
DGENRE=
TTITLE0=Sammy Masters - 2 Rock A 4
TTITLE1=Kenny Baker - Goodby Little Star
TTITLE2=Rockus Tyler - Rollin' And Rockin'
TTITLE3=Rockus Tyler - Rock Town Rock
TTITLE4=Rocking Charlie Like Out Of This World
TTITLE5=Charles Shorty Bacon - Super Jivin' Lulu
TTITLE6=Johnny Tyler -  Lie To Me Baby
TTITLE7=Earney Vandagriff - You Can't Come In
TTITLE8=Johnny Henderson - Any Old Port In The Storm
TTITLE9=Jess Willard - Every Dog Has His Day
TTITLE10=Johnny Gittar - San Atonio Boogie
TTITLE11=Eddie Dean - Impatient Blues
TTITLE12=Ronnie Keith - Mad Cat Boogie
TTITLE13=Jimmy Merritt - I Lost The Blues
TTITLE14=Bobby Bobo: Doggone, Longgone Blues
TTITLE15=Wally and Don - Please Don't
EXTD=
EXTT0=
EXTT1=
EXTT2=
EXTT3=
EXTT4=
EXTT5=
EXTT6=
EXTT7=
EXTT8=
EXTT9=
EXTT10=
EXTT11=
EXTT12=
EXTT13=
EXTT14=
EXTT15=
PLAYORDER=
